<svg xmlns="http://www.w3.org/2000/svg" xmlns:xlink="http://www.w3.org/1999/xlink" version="1.1" viewBox="17.88 17.81 142.25 56.63"><g id="surface1"><path style=" stroke:none;fill-rule:nonzero;fill:rgb(0%,0%,0%);fill-opacity:1;" d="M 22.640625 30.996094 L 30.316406 30.996094 L 32.003906 35.367188 L 35.121094 35.367188 L 28.257812 17.8125 L 24.785156 17.8125 L 17.875 35.367188 L 20.949219 35.367188 Z M 23.703125 28.242188 L 26.476562 21.101562 L 29.246094 28.242188 Z M 23.703125 28.242188 "></path><path style=" stroke:none;fill-rule:nonzero;fill:rgb(0%,0%,0%);fill-opacity:1;" d="M 53.789062 17.808594 L 50.808594 17.808594 L 50.808594 35.367188 L 63.683594 35.367188 L 63.683594 32.613281 L 53.789062 32.613281 Z M 53.789062 17.808594 "></path><path style=" stroke:none;fill-rule:nonzero;fill:rgb(0%,0%,0%);fill-opacity:1;" d="M 40.078125 35.613281 L 47.082031 35.613281 L 47.082031 27.90625 L 49.277344 27.90625 L 49.277344 25.242188 L 47.082031 25.242188 L 47.082031 22.542969 C 47.050781 19.84375 44.835938 17.808594 41.925781 17.808594 L 39.316406 17.808594 L 39.316406 20.464844 L 41.683594 20.464844 C 42.851562 20.464844 44.109375 21.117188 44.109375 22.546875 L 44.117188 25.242188 L 39.675781 25.242188 L 39.675781 22.011719 L 37.046875 22.011719 L 37.046875 26.15625 C 37.046875 26.433594 37.183594 26.679688 37.386719 26.832031 C 35.890625 27.703125 35.109375 29.070312 35.132812 30.835938 C 35.160156 33.472656 37.382812 35.613281 40.082031 35.613281 Z M 38.171875 30.476562 C 38.171875 28.964844 39.257812 27.953125 40.875 27.953125 L 44.117188 27.953125 L 44.117188 32.949219 L 40.800781 32.949219 C 40.1875 32.949219 39.65625 32.820312 39.226562 32.574219 C 38.535156 32.140625 38.171875 31.414062 38.171875 30.472656 Z M 38.171875 30.476562 "></path><path style=" stroke:none;fill-rule:nonzero;fill:rgb(0%,0%,0%);fill-opacity:1;" d="M 76.804688 49.875 C 76.804688 47.882812 75.839844 46.382812 74.238281 45.792969 C 75.652344 44.996094 76.445312 43.648438 76.445312 41.984375 C 76.445312 39.175781 74.34375 37.214844 71.335938 37.214844 L 63.691406 37.214844 L 63.691406 54.769531 L 71.574219 54.769531 C 74.558594 54.769531 76.804688 52.664062 76.804688 49.875 Z M 73.824219 49.632812 C 73.824219 51.128906 72.800781 52.015625 71.089844 52.015625 L 66.664062 52.015625 L 66.664062 47.246094 L 71.089844 47.246094 C 72.800781 47.246094 73.824219 48.136719 73.824219 49.628906 Z M 70.96875 44.496094 L 66.667969 44.496094 L 66.667969 39.96875 L 70.96875 39.96875 C 72.507812 39.96875 73.464844 40.835938 73.464844 42.230469 C 73.464844 43.625 72.511719 44.496094 70.96875 44.496094 Z M 70.96875 44.496094 "></path><path style=" stroke:none;fill-rule:nonzero;fill:rgb(0%,0%,0%);fill-opacity:1;" d="M 91.109375 52.015625 L 80.976562 52.015625 L 80.976562 47.125 L 89.425781 47.125 L 89.425781 44.371094 L 80.976562 44.371094 L 80.976562 39.964844 L 90.871094 39.964844 L 90.871094 37.214844 L 77.992188 37.214844 L 77.992188 54.769531 L 91.109375 54.769531 Z M 91.109375 52.015625 "></path><path style=" stroke:none;fill-rule:nonzero;fill:rgb(0%,0%,0%);fill-opacity:1;" d="M 95.503906 47.972656 L 101.011719 47.972656 C 102.183594 47.972656 102.417969 48.207031 102.417969 49.386719 L 102.417969 54.769531 L 105.398438 54.769531 L 105.398438 48.785156 C 105.398438 47.246094 104.890625 46.460938 103.640625 46.210938 C 104.867188 45.394531 105.640625 43.863281 105.640625 42.105469 C 105.640625 39.273438 103.292969 37.210938 100.046875 37.210938 L 92.523438 37.210938 L 92.523438 54.765625 L 95.503906 54.765625 L 95.503906 47.96875 Z M 95.503906 39.964844 L 99.683594 39.964844 C 101.605469 39.964844 102.65625 40.851562 102.65625 42.472656 C 102.65625 44.09375 101.460938 45.222656 99.683594 45.222656 L 95.503906 45.222656 Z M 95.503906 39.964844 "></path><path style=" stroke:none;fill-rule:nonzero;fill:rgb(0%,0%,0%);fill-opacity:1;" d="M 119.890625 45.582031 L 114.660156 45.582031 L 114.660156 48.3125 L 119.488281 48.3125 L 119.488281 48.488281 C 119.488281 50.363281 118.121094 52.257812 115.0625 52.257812 L 114.824219 52.257812 C 111.5 52.257812 109.433594 49.851562 109.433594 45.988281 C 109.433594 42.125 111.5 39.71875 114.824219 39.71875 L 115.0625 39.71875 C 117.460938 39.71875 118.902344 40.921875 119.125 43.105469 L 119.152344 43.359375 L 122.125 43.359375 L 122.105469 43.054688 C 121.832031 39.300781 119.085938 36.96875 114.945312 36.96875 C 109.863281 36.96875 106.457031 40.597656 106.457031 45.988281 C 106.457031 51.382812 109.847656 55.011719 114.703125 55.011719 C 117.050781 55.011719 118.65625 54.09375 119.488281 53.316406 L 119.488281 54.769531 L 122.230469 54.769531 L 122.230469 47.933594 C 122.230469 46.441406 121.375 45.582031 119.894531 45.582031 Z M 119.890625 45.582031 "></path><path style=" stroke:none;fill-rule:nonzero;fill:rgb(0%,0%,0%);fill-opacity:1;" d="M 17.878906 74.191406 L 20.859375 74.191406 L 20.859375 67.03125 L 29.066406 67.03125 L 29.066406 64.277344 L 20.859375 64.277344 L 20.859375 59.386719 L 30.277344 59.386719 L 30.277344 56.636719 L 17.878906 56.636719 Z M 17.878906 74.191406 "></path><path style=" stroke:none;fill-rule:nonzero;fill:rgb(0%,0%,0%);fill-opacity:1;" d="M 39.054688 56.390625 C 34.117188 56.390625 30.804688 60.019531 30.804688 65.414062 C 30.804688 70.804688 34.117188 74.433594 39.054688 74.433594 C 43.988281 74.433594 47.300781 70.804688 47.300781 65.414062 C 47.300781 60.019531 43.988281 56.390625 39.054688 56.390625 Z M 39.171875 71.683594 L 38.933594 71.683594 C 35.804688 71.683594 33.785156 69.226562 33.785156 65.417969 C 33.785156 61.609375 35.804688 59.144531 38.933594 59.144531 L 39.171875 59.144531 C 42.300781 59.144531 44.324219 61.605469 44.324219 65.417969 C 44.324219 69.230469 42.300781 71.683594 39.171875 71.683594 Z M 39.171875 71.683594 "></path><path style=" stroke:none;fill-rule:nonzero;fill:rgb(0%,0%,0%);fill-opacity:1;" d="M 58.875 67.601562 C 58.875 69.460938 58.253906 71.683594 55.296875 71.683594 L 55.058594 71.683594 C 52.097656 71.683594 51.480469 69.460938 51.480469 67.601562 L 51.480469 56.636719 L 48.5 56.636719 L 48.5 67.847656 C 48.5 72.035156 50.933594 74.4375 55.179688 74.4375 C 59.429688 74.4375 61.863281 71.976562 61.863281 67.847656 L 61.863281 56.636719 L 58.882812 56.636719 L 58.882812 67.601562 Z M 58.875 67.601562 "></path><path style=" stroke:none;fill-rule:nonzero;fill:rgb(0%,0%,0%);fill-opacity:1;" d="M 74.914062 69.882812 L 67.511719 56.636719 L 63.683594 56.636719 L 63.683594 74.191406 L 66.664062 74.191406 L 66.664062 60.945312 L 74.0625 74.191406 L 77.890625 74.191406 L 77.890625 56.636719 L 74.914062 56.636719 Z M 74.914062 69.882812 "></path><path style=" stroke:none;fill-rule:nonzero;fill:rgb(0%,0%,0%);fill-opacity:1;" d="M 86.046875 56.636719 L 79.726562 56.636719 L 79.726562 74.199219 L 86.046875 74.199219 C 91.0625 74.199219 94.175781 70.835938 94.175781 65.417969 C 94.175781 60 91.0625 56.636719 86.046875 56.636719 Z M 82.707031 59.390625 L 85.804688 59.390625 C 89.335938 59.390625 91.195312 61.472656 91.195312 65.417969 C 91.195312 69.359375 89.335938 71.445312 85.804688 71.445312 L 82.707031 71.445312 Z M 82.707031 59.390625 "></path><path style=" stroke:none;fill-rule:nonzero;fill:rgb(0%,0%,0%);fill-opacity:1;" d="M 100.117188 56.636719 L 93.207031 74.199219 L 96.28125 74.199219 L 97.972656 69.828125 L 105.648438 69.828125 L 107.332031 74.199219 L 110.453125 74.199219 L 103.589844 56.636719 Z M 99.035156 67.074219 L 101.808594 59.9375 L 104.578125 67.074219 Z M 99.035156 67.074219 "></path><path style=" stroke:none;fill-rule:nonzero;fill:rgb(0%,0%,0%);fill-opacity:1;" d="M 107.175781 59.386719 L 113.207031 59.386719 L 113.207031 74.191406 L 116.1875 74.191406 L 116.1875 59.386719 L 122.21875 59.386719 L 122.21875 56.636719 L 107.175781 56.636719 Z M 107.175781 59.386719 "></path><path style=" stroke:none;fill-rule:nonzero;fill:rgb(0%,0%,0%);fill-opacity:1;" d="M 123.417969 56.636719 L 126.394531 56.636719 L 126.394531 74.199219 L 123.417969 74.199219 Z M 123.417969 56.636719 "></path><path style=" stroke:none;fill-rule:nonzero;fill:rgb(0%,0%,0%);fill-opacity:1;" d="M 136.175781 56.390625 C 131.242188 56.390625 127.929688 60.019531 127.929688 65.414062 C 127.929688 70.804688 131.242188 74.433594 136.175781 74.433594 C 141.113281 74.433594 144.425781 70.804688 144.425781 65.414062 C 144.425781 60.019531 141.113281 56.390625 136.175781 56.390625 Z M 136.296875 71.683594 L 136.058594 71.683594 C 132.929688 71.683594 130.90625 69.226562 130.90625 65.417969 C 130.90625 61.609375 132.929688 59.144531 136.058594 59.144531 L 136.296875 59.144531 C 139.425781 59.144531 141.445312 61.605469 141.445312 65.417969 C 141.445312 69.230469 139.425781 71.683594 136.296875 71.683594 Z M 136.296875 71.683594 "></path><path style=" stroke:none;fill-rule:nonzero;fill:rgb(0%,0%,0%);fill-opacity:1;" d="M 157.140625 56.636719 L 157.140625 69.882812 L 149.746094 56.636719 L 145.917969 56.636719 L 145.917969 74.191406 L 148.898438 74.191406 L 148.898438 60.945312 L 156.292969 74.191406 L 160.121094 74.191406 L 160.121094 56.636719 Z M 157.140625 56.636719 "></path></g></svg>