<svg xmlns="http://www.w3.org/2000/svg" xmlns:xlink="http://www.w3.org/1999/xlink" version="1.1" viewBox="17.87 18.07 14.25 17.86"><g id="surface1"><path style=" stroke:none;fill-rule:nonzero;fill:rgb(0%,0%,0%);fill-opacity:1;" d="M 22.859375 35.929688 L 29.910156 35.929688 L 29.910156 28.183594 L 32.125 28.183594 L 32.125 25.515625 L 29.910156 25.515625 L 29.910156 22.796875 C 29.859375 20.082031 27.644531 18.070312 24.722656 18.070312 L 22.105469 18.070312 L 22.105469 20.734375 L 24.472656 20.734375 C 25.628906 20.734375 26.9375 21.390625 26.9375 22.796875 L 26.9375 25.515625 L 22.457031 25.515625 L 22.457031 22.296875 L 19.789062 22.296875 L 19.789062 26.472656 C 19.789062 26.773438 19.941406 26.976562 20.140625 27.125 C 18.628906 27.980469 17.824219 29.390625 17.875 31.152344 C 17.875 33.765625 20.140625 35.929688 22.859375 35.929688 Z M 20.945312 30.75 C 20.945312 29.238281 22.054688 28.234375 23.664062 28.234375 L 26.9375 28.234375 L 26.9375 33.265625 L 23.617188 33.265625 C 23.011719 33.265625 22.457031 33.113281 22.054688 32.910156 C 21.300781 32.460938 20.945312 31.703125 20.945312 30.75 Z M 20.945312 30.75 "></path></g></svg>